<svg xmlns="http://www.w3.org/2000/svg" width="100" height="100" viewBox="0 0 32 32">
    <circle cx="16" cy="16" r="16" fill="#F7931A"/>
    <path fill="#FFF" d="M20.84 14.417c.266-1.774-1.084-2.733-2.934-3.373l.6-2.405-1.464-.366-.585 2.34c-.385-.097-.78-.188-1.17-.278l.59-2.34-1.46-.365-.6 2.405c-.317-.073-.63-.146-.935-.226l-2.008-.5-.366 1.472s1.083.248 1.06.264c.59.146.697.53.68.835l-.68 2.728c.04.01.093.026.152.047l-.15-.038-.953 3.84c-.073.183-.265.46-.69.354.016.02-1.062-.267-1.062-.267l-.683 1.58 1.89.47c.353.088.7.18 1.043.267l-.608 2.447 1.46.365.6-2.405c.397.11.78.21 1.16.31l-.598 2.405 1.463.365.61-2.457c2.487.47 4.36.28 5.144-1.97.63-1.753-.03-2.763-1.34-3.428.96-.22 1.69-.845 1.885-2.142zm-3.35 4.68c-.466 1.755-3.623.805-4.65.567l.83-3.325c1.028.24 4.3.72 3.82 2.758zm.466-4.73c-.425 1.662-3.042.81-3.89.606l.75-3.003c.85.206 3.61.593 3.14 2.397z"/>
</svg>